<?xml version="1.0" standalone="no"?>
<!DOCTYPE svg PUBLIC "-//W3C//DTD SVG 20010904//EN"
 "http://www.w3.org/TR/2001/REC-SVG-20010904/DTD/svg10.dtd">
<svg version="1.0" xmlns="http://www.w3.org/2000/svg"
 width="16pt" height="16pt" viewBox="0 0 512.000000 512.000000"
 preserveAspectRatio="xMidYMid meet">
<metadata>
Created by potrace 1.15, written by Peter Selinger 2001-2017
</metadata>
<g transform="translate(0.000000,512.000000) scale(0.100000,-0.100000)"
fill="#000000" stroke="none">
<path d="M960 3403 l-1 -938 -73 -805 c-41 -443 -73 -806 -72 -806 5 -6 509
-54 514 -50 5 6 12 106 52 761 6 105 18 294 25 420 11 167 15 454 15 1048 l0
817 1450 0 1450 0 0 245 0 245 -1680 0 -1680 0 0 -937z"/>
<path d="M1740 3345 l0 -215 630 0 630 0 0 215 0 215 -630 0 -630 0 0 -215z"/>
<path d="M3790 3400 l0 -160 -260 0 -260 0 0 -230 0 -230 260 0 260 0 -1 -427
c0 -236 -2 -423 -4 -418 -3 6 -27 113 -54 239 -28 126 -52 231 -55 233 -6 6
-403 -49 -417 -57 -5 -4 5 -66 26 -156 20 -82 42 -178 50 -214 49 -220 48
-215 80 -212 17 1 98 9 180 17 83 8 160 15 173 15 l22 0 0 -260 0 -260 -205 0
-205 0 0 -230 0 -230 430 0 430 0 0 980 0 980 55 0 55 0 0 230 0 230 -55 0
-55 0 0 160 0 160 -225 0 -225 0 0 -160z"/>
<path d="M1740 2320 l0 -520 48 0 48 0 17 -251 c10 -138 16 -253 14 -256 -3
-2 -46 -7 -96 -10 l-91 -6 0 -229 0 -228 38 5 c41 6 1354 115 1384 115 17 0
18 13 18 213 l0 213 -101 -4 -102 -4 6 68 c4 38 7 138 9 222 l2 152 33 0 33 0
0 520 0 520 -630 0 -630 0 0 -520z m890 -10 l0 -160 -260 0 -260 0 0 160 0
160 260 0 260 0 0 -160z m-87 -742 c-3 -128 -6 -234 -7 -235 -2 -2 -260 -20
-263 -18 -3 1 -33 421 -33 457 l0 28 155 0 154 0 -6 -232z"/>
</g>
</svg>
